<svg width="960" height="540" xmlns="http://www.w3.org/2000/svg" xmlns:xlink="http://www.w3.org/1999/xlink" overflow="hidden"><defs><clipPath id="clip0"><rect x="0" y="0" width="960" height="540"/></clipPath></defs><g clip-path="url(#clip0)"><rect x="0" y="0" width="960" height="540" fill="#FFFFFF"/><rect x="0" y="521" width="960" height="19" fill="#32AEB8"/><rect x="0" y="0" width="960" height="8" fill="#32AEB8"/><text fill="#404040" font-family="Arial,Arial_MSFontService,sans-serif" font-weight="400" font-size="48" transform="translate(341.333 61)">Our Services</text><text fill="#404040" font-family="Arial,Arial_MSFontService,sans-serif" font-weight="400" font-size="19" transform="translate(338.333 95)">Insert the title of your subtitle Here</text><rect x="0" y="134" width="960" height="363" fill="#32AEB8"/><path d="M69 209.5C69 192.655 82.4315 179 99 179 115.569 179 129 192.655 129 209.5 129 226.345 115.569 240 99 240 82.4315 240 69 226.345 69 209.5Z" fill="#FFFFFF" fill-rule="evenodd"/><path d="M67 315.5C67 298.655 80.4315 285 97 285 113.569 285 127 298.655 127 315.5 127 332.345 113.569 346 97 346 80.4315 346 67 332.345 67 315.5Z" fill="#FFFFFF" fill-rule="evenodd"/><path d="M65 421C65 404.431 78.4315 391 95 391 111.569 391 125 404.431 125 421 125 437.569 111.569 451 95 451 78.4315 451 65 437.569 65 421Z" fill="#FFFFFF" fill-rule="evenodd"/><text fill="#FFFFFF" font-family="Arial,Arial_MSFontService,sans-serif" font-weight="400" font-size="16" transform="translate(146.155 211)">You can simply impress your</text><text fill="#FFFFFF" font-family="Arial,Arial_MSFontService,sans-serif" font-weight="400" font-size="16" transform="translate(146.155 230)">audience and add a unique zing and</text><text fill="#FFFFFF" font-family="Arial,Arial_MSFontService,sans-serif" font-weight="400" font-size="16" transform="translate(146.155 249)">appeal to your Presentations.</text><text fill="#FFFFFF" font-family="Arial,Arial_MSFontService,sans-serif" font-weight="700" font-size="19" transform="translate(146.155 184)">Your Text Here</text><text fill="#FFFFFF" font-family="Arial,Arial_MSFontService,sans-serif" font-weight="400" font-size="16" transform="translate(146.155 317)">You can simply impress your</text><text fill="#FFFFFF" font-family="Arial,Arial_MSFontService,sans-serif" font-weight="400" font-size="16" transform="translate(146.155 336)">audience and add a unique zing and</text><text fill="#FFFFFF" font-family="Arial,Arial_MSFontService,sans-serif" font-weight="400" font-size="16" transform="translate(146.155 355)">appeal to your Presentations.</text><text fill="#FFFFFF" font-family="Arial,Arial_MSFontService,sans-serif" font-weight="700" font-size="19" transform="translate(146.155 289)">Your Text Here</text><text fill="#FFFFFF" font-family="Arial,Arial_MSFontService,sans-serif" font-weight="400" font-size="16" transform="translate(146.155 423)">You can simply impress your</text><text fill="#FFFFFF" font-family="Arial,Arial_MSFontService,sans-serif" font-weight="400" font-size="16" transform="translate(146.155 442)">audience and add a unique zing and</text><text fill="#FFFFFF" font-family="Arial,Arial_MSFontService,sans-serif" font-weight="400" font-size="16" transform="translate(146.155 461)">appeal to your Presentations.</text><text fill="#FFFFFF" font-family="Arial,Arial_MSFontService,sans-serif" font-weight="700" font-size="19" transform="translate(146.155 395)">Your Text Here</text><path d="M551 210.5C551 193.655 564.655 180 581.5 180 598.345 180 612 193.655 612 210.5 612 227.345 598.345 241 581.5 241 564.655 241 551 227.345 551 210.5Z" fill="#FFFFFF" fill-rule="evenodd"/><path d="M549 316C549 299.431 562.655 286 579.5 286 596.345 286 610 299.431 610 316 610 332.569 596.345 346 579.5 346 562.655 346 549 332.569 549 316Z" fill="#FFFFFF" fill-rule="evenodd"/><path d="M547 422C547 405.431 560.655 392 577.5 392 594.345 392 608 405.431 608 422 608 438.569 594.345 452 577.5 452 560.655 452 547 438.569 547 422Z" fill="#FFFFFF" fill-rule="evenodd"/><text fill="#FFFFFF" font-family="Arial,Arial_MSFontService,sans-serif" font-weight="400" font-size="16" transform="translate(628.678 212)">You can simply impress your</text><text fill="#FFFFFF" font-family="Arial,Arial_MSFontService,sans-serif" font-weight="400" font-size="16" transform="translate(628.678 231)">audience and add a unique zing and</text><text fill="#FFFFFF" font-family="Arial,Arial_MSFontService,sans-serif" font-weight="400" font-size="16" transform="translate(628.678 250)">appeal to your Presentations.</text><text fill="#FFFFFF" font-family="Arial,Arial_MSFontService,sans-serif" font-weight="700" font-size="19" transform="translate(628.678 184)">Your Text Here</text><text fill="#FFFFFF" font-family="Arial,Arial_MSFontService,sans-serif" font-weight="400" font-size="16" transform="translate(628.678 318)">You can simply impress your</text><text fill="#FFFFFF" font-family="Arial,Arial_MSFontService,sans-serif" font-weight="400" font-size="16" transform="translate(628.678 337)">audience and add a unique zing and</text><text fill="#FFFFFF" font-family="Arial,Arial_MSFontService,sans-serif" font-weight="400" font-size="16" transform="translate(628.678 356)">appeal to your Presentations.</text><text fill="#FFFFFF" font-family="Arial,Arial_MSFontService,sans-serif" font-weight="700" font-size="19" transform="translate(628.678 290)">Your Text Here</text><text fill="#FFFFFF" font-family="Arial,Arial_MSFontService,sans-serif" font-weight="400" font-size="16" transform="translate(628.678 424)">You can simply impress your</text><text fill="#FFFFFF" font-family="Arial,Arial_MSFontService,sans-serif" font-weight="400" font-size="16" transform="translate(628.678 443)">audience and add a unique zing and</text><text fill="#FFFFFF" font-family="Arial,Arial_MSFontService,sans-serif" font-weight="400" font-size="16" transform="translate(628.678 462)">appeal to your Presentations.</text><text fill="#FFFFFF" font-family="Arial,Arial_MSFontService,sans-serif" font-weight="700" font-size="19" transform="translate(628.678 396)">Your Text Here</text><rect x="478" y="174" width="4" height="283" fill="#FFFFFF"/><text fill="#32AEB8" font-family="Arial,Arial_MSFontService,sans-serif" font-weight="700" font-size="32" transform="translate(80.9218 222)">01</text><text fill="#32AEB8" font-family="Arial,Arial_MSFontService,sans-serif" font-weight="700" font-size="32" transform="translate(77.1719 327)">02</text><text fill="#32AEB8" font-family="Arial,Arial_MSFontService,sans-serif" font-weight="700" font-size="32" transform="translate(77.1719 433)">03</text><text fill="#32AEB8" font-family="Arial,Arial_MSFontService,sans-serif" font-weight="700" font-size="32" transform="translate(563.702 223)">04</text><text fill="#32AEB8" font-family="Arial,Arial_MSFontService,sans-serif" font-weight="700" font-size="32" transform="translate(559.952 328)">05</text><text fill="#32AEB8" font-family="Arial,Arial_MSFontService,sans-serif" font-weight="700" font-size="32" transform="translate(559.952 433)">06</text></g></svg>